<?xml version="1.0" encoding="UTF-8" standalone="no" ?>
<!DOCTYPE svg PUBLIC "-//W3C//DTD SVG 1.1//EN" "http://www.w3.org/Graphics/SVG/1.1/DTD/svg11.dtd">
<svg xmlns="http://www.w3.org/2000/svg" xmlns:xlink="http://www.w3.org/1999/xlink" version="1.1" width="640" height="480" viewBox="0 0 640 480" xml:space="preserve">
<desc>Created with Fabric.js 3.6.3</desc>
<defs>
</defs>
<g transform="matrix(19.46 0 0 19.46 320.25 241.25)"  >
<path style="stroke: none; stroke-width: 1; stroke-dasharray: none; stroke-linecap: butt; stroke-dashoffset: 0; stroke-linejoin: miter; stroke-miterlimit: 4; fill: rgb(162,123,92); fill-rule: nonzero; opacity: 1;"  transform=" translate(-12, -12)" d="M 12 0 C 5.4 0 0 5.4 0 12 c 0 6.6 5.4 12 12 12 s 12 -5.4 12 -12 C 24 5.4 18.6 0 12 0 z M 12 4 c 2.2 0 4 2.2 4 5 s -1.8 5 -4 5 s -4 -2.2 -4 -5 S 9.8 4 12 4 z M 18.6 19.5 C 16.9 21 14.5 22 12 22 s -4.9 -1 -6.6 -2.5 c -0.4 -0.4 -0.5 -1 -0.1 -1.4 c 1.1 -1.3 2.6 -2.2 4.2 -2.7 c 0.8 0.4 1.6 0.6 2.5 0.6 s 1.7 -0.2 2.5 -0.6 c 1.7 0.5 3.1 1.4 4.2 2.7 C 19.1 18.5 19.1 19.1 18.6 19.5 z" stroke-linecap="round" />
</g>
</svg>